<?xml version="1.0" encoding="UTF-8"?>
<svg width="791.88519" height="915.47083" version="1.1" viewBox="0 0 228.86855 228.86771" xmlns="http://www.w3.org/2000/svg">
  <path id="hexagon" transform="matrix(.28901734 0 0 .28901734 0 -17.859615)" d="m395.93555 0.00390625-395.9257844 228.8652338v456.16992l18.91992238-32.77148 20.248046 11.68945 0.017578-0.00976-20.283203-11.71094 60.283203-104.41406v-273.17969l316.740238-183.091799 237.55664 137.318359h118.78711 39.60156l-395.94531-228.8652338zm237.55859 686.5937538-158.91797 91.86328-59.25976 102.63867-19.38086-11.18945v0.02148l19.40039 11.20117-19.40039 33.60157v0.72851l395.94531-228.86523h-39.60156-118.78516z" fill="#126cfa"/>
  <path id="stack" transform="matrix(.28901734 0 0 .28901734 0 -17.859615)" d="m78.353516 640.82617-19.800782 34.29688 317.124996 183.09179 19.80079-34.29687zm-19.777344 34.32617-19.800781 34.29688 317.124999 183.0918 19.80078-34.29688zm654.101558-400.50976v366.18359h79.20313v-366.18359zm-129.22575 17.0213-38.25327 10.26315-38.25328 10.26313 94.66885 353.72094 38.25328-10.26312 38.25328-10.26316zm-196.92759 70.44738-34.28864 19.82898-34.28864 19.82895 182.87281 317.13838 34.30652-19.82898 34.28867-19.81109zm-171.99685 119.0811-28.0024 28.03593 0.0183 0.0173-28.0024 28.03589 258.62932 258.93883 28.00241-28.0359 28.00236-28.03593z" fill="#f28427"/>
</svg>
