<?xml version="1.0" encoding="UTF-8"?>
<svg id="svg4" width="512" height="512" version="1.1" viewBox="0 0 147.97688 128" xmlns="http://www.w3.org/2000/svg">
  <g id="g894" transform="matrix(.55709802 0 0 .55709802 10.238466 .2499981)">
    <path id="hexagon" d="m114.42942-17.859371-114.42942 66.146021v131.84102l5.4681856-9.47152 5.8520364 3.37845 0.0051-3e-3 -5.862198-3.3846 17.422891-30.17747v-78.953562l91.543405-52.916705 68.65799 39.687387h45.77707zm88.18528 198.437511-14.29845 3.83117-14.29902 3.83117-12.82007 7.40212-12.82006 7.40155-20.96618 20.96618-7.3801 12.78224-5.6014-3.23394v6e-3l5.60705 3.23733-5.60705 9.71144v0.21055l114.43506-66.14602h-11.44554z" fill="#126cfa"/>
    <g>
      <path id="stack000" d="m22.642702 167.34938-5.722769 9.91239 91.654627 52.91671 5.72277-9.91239zm-5.715995 9.92086-5.722769 9.91239 91.654622 52.91671 5.72277-9.9124z" fill="#f28427"/>
      <path id="stack001" d="m61.999357 121.21244-8.09318 8.10287 0.0053 5e-3 -8.093179 8.10286 74.748362 74.83781 8.09318-8.10286 8.09316-8.10287z" fill="#f28427"/>
      <path id="stack002" d="m111.70943 86.795933-9.91001 5.730919-9.910014 5.73091 52.853414 91.658498 9.91518-5.73092 9.91002-5.72575z" fill="#f28427"/>
      <path id="stack003" d="m168.62492 66.435419-11.05586 2.966228-11.05586 2.966222 27.36094 102.231491 11.05586-2.96622 11.05586-2.96623z" fill="#f28427"/>
      <path id="stack004" d="m205.9734 61.515968v105.833412h22.89108v-105.833412z" fill="#f28427"/>
    </g>
  </g>
</svg>
