<?xml version="1.0" encoding="UTF-8"?>
<svg id="svg4" width="512" height="512" version="1.1" viewBox="0 0 147.97688 128" xmlns="http://www.w3.org/2000/svg" xmlns:osb="http://www.openswatchbook.org/uri/2009/osb">
  <path id="background" d="m73.988437-9.9884398 32.037933 18.4971095 32.03794 18.4971113v73.988439l-32.03794 18.4971-32.037933 18.49712-32.037936-18.49712-32.0379363-18.4971v-73.988439l32.0379363-18.4971113z" fill="#fff"/>
  <path id="hexagon" d="m73.987127 2.3429685-53.331996 30.8286045v61.447001l2.548551-4.41438 2.727453 1.57459 0.0024-0.0014-2.732188-1.577456 8.120268-14.064781v-36.7978l42.665512-24.662832 31.999353 18.497058h21.33527zm41.100423 92.4855555-6.66407 1.785592-6.66432 1.785591-5.975044 3.449893-5.97503 3.44963-9.771685 9.77169-3.439635 5.9574-2.610639-1.50724v2e-3l2.613272 1.50882-2.613272 4.5262v0.0981l53.334623-30.828076h-5.33441z" fill="#126cfa"/>
  <g id="stack">
    <path id="stack000" d="m31.208191 88.663011-2.667205 4.619857 42.717373 24.662832 2.667205-4.61985zm-2.664048 4.623805-2.667204 4.619858 42.71737 24.662836 2.667205-4.61986z" fill="#f28427"/>
    <path id="stack001" d="m49.551105 67.160017-3.77198 3.776496 0.0025 0.0023-3.771979 3.776491 34.837888 34.879586 3.77198-3.7765 3.77197-3.7765z" fill="#f28427"/>
    <path id="stack002" d="m72.719424 51.119553-4.618747 2.671003-4.618749 2.670999 24.633333 42.719177 4.621158-2.671 4.618755-2.668597z" fill="#f28427"/>
    <path id="stack003" d="m99.245966 41.63015-5.152793 1.382467-5.152793 1.382463 12.75209 47.646922 5.15279-1.382464 5.15279-1.382467z" fill="#f28427"/>
    <path id="stack004" d="m116.65293 39.337347v49.325664h10.66882v-49.325664z" fill="#f28427"/>
  </g>
</svg>
