<?xml version="1.0" encoding="UTF-8"?>
<svg width="865" height="1e3" version="1.1" viewBox="0 0 250 250" xmlns="http://www.w3.org/2000/svg">
  <g stroke-width=".00264583">
    <path id="hexagon" d="m114.42971 0-114.42971 66.145832v132.291668l22.885942-13.22917v-105.833331l91.543768-52.916666 91.54377 52.916666 22.8911-13.229167zm91.54377 185.20833-91.54377 52.91667v26.45833l114.43487-66.14583z" fill="#126cfa" image-rendering="auto" stroke="#126cfa" stroke-linecap="round" stroke-linejoin="round"/>
    <path id="stack" d="m228.86458 66.145832-22.8911 13.229167v105.833331l22.8911 13.22917zm-60.23948 18.148763-11.05586 2.966228-11.05586 2.966225 27.36094 102.231482 11.05586-2.96622 11.05586-2.96623zm-56.91549 20.360515-9.91001 5.73092-9.910016 5.73091 52.853416 91.65849 9.91518-5.73092 9.91002-5.72575zm-49.710075 34.4165-8.093179 8.10287 0.0053 5e-3 -8.093179 8.10286 74.748363 74.83781 8.09318-8.10286 8.09317-8.10287zm-39.113593 46.13672-22.885942 13.22917 114.42971 66.14583v-26.45833z" fill="#f28427" stroke="#f28427"/>
  </g>
</svg>
